HIERARCHY
ROOT Hips
{
    OFFSET   0.000000   0.000000   0.000000
    CHANNELS 6 Xposition Yposition Zposition Zrotation Xrotation Yrotation
    JOINT Chest
    {
        OFFSET   0.000000   8.007240   0.000000
        CHANNELS 3 Zrotation Xrotation Yrotation
        JOINT Chest2
        {
            OFFSET   0.000000  22.077100   0.000000
            CHANNELS 3 Zrotation Xrotation Yrotation
            JOINT Neck
            {
                OFFSET   0.000000  23.254800   0.000000
                CHANNELS 3 Zrotation Xrotation Yrotation
                JOINT Head
                {
                    OFFSET   0.000000  14.370000   1.956600
                    CHANNELS 3 Zrotation Xrotation Yrotation
                    End Site
                    {
                        OFFSET   0.000000  19.566000   0.000000
                    }
                }
            }
            JOINT LeftCollar
            {
                OFFSET   3.911900  19.017000  -0.467064
                CHANNELS 3 Zrotation Xrotation Yrotation
                JOINT LeftShoulder
                {
                    OFFSET  10.383700   0.000000   0.000000
                    CHANNELS 3 Zrotation Xrotation Yrotation
                    JOINT LeftElbow
                    {
                        OFFSET  26.662100   0.001476   0.000517
                        CHANNELS 3 Zrotation Xrotation Yrotation
                        JOINT LeftWrist
                        {
                            OFFSET  28.869000  -0.000025  -0.000106
                            CHANNELS 3 Zrotation Xrotation Yrotation
                            JOINT LeftFinger0
                            {
                                OFFSET   2.044660  -2.323460   3.252850
                                CHANNELS 3 Zrotation Xrotation Yrotation
                                JOINT LeftFinger01
                                {
                                    OFFSET   3.088130   0.000000   0.000000
                                    CHANNELS 3 Zrotation Xrotation Yrotation
                                    JOINT LeftFinger02
                                    {
                                        OFFSET   2.639460   0.000000   0.000000
                                        CHANNELS 3 Zrotation Xrotation Yrotation
                                        End Site
                                        {
                                            OFFSET   2.582190   0.000000   0.000000
                                        }
                                    }
                                }
                            }
                            JOINT LeftFinger1
                            {
                                OFFSET   8.364480   0.000000   3.252850
                                CHANNELS 3 Zrotation Xrotation Yrotation
                                JOINT LeftFinger11
                                {
                                    OFFSET   4.646930   0.000000   0.000000
                                    CHANNELS 3 Zrotation Xrotation Yrotation
                                    JOINT LeftFinger12
                                    {
                                        OFFSET   2.323460   0.000000   0.000000
                                        CHANNELS 3 Zrotation Xrotation Yrotation
                                        End Site
                                        {
                                            OFFSET   2.273050   0.000000   0.000000
                                        }
                                    }
                                }
                            }
                            JOINT LeftFinger2
                            {
                                OFFSET   8.364490   0.000015   1.078090
                                CHANNELS 3 Zrotation Xrotation Yrotation
                                JOINT LeftFinger21
                                {
                                    OFFSET   5.111620   0.000000   0.000000
                                    CHANNELS 3 Zrotation Xrotation Yrotation
                                    JOINT LeftFinger22
                                    {
                                        OFFSET   2.788160   0.000016   0.000000
                                        CHANNELS 3 Zrotation Xrotation Yrotation
                                        End Site
                                        {
                                            OFFSET   2.727660   0.000000   0.000000
                                        }
                                    }
                                }
                            }
                            JOINT LeftFinger3
                            {
                                OFFSET   7.899780   0.000017  -1.078090
                                CHANNELS 3 Zrotation Xrotation Yrotation
                                JOINT LeftFinger31
                                {
                                    OFFSET   4.646930   0.000000   0.000000
                                    CHANNELS 3 Zrotation Xrotation Yrotation
                                    JOINT LeftFinger32
                                    {
                                        OFFSET   2.323470   0.000000   0.000000
                                        CHANNELS 3 Zrotation Xrotation Yrotation
                                        End Site
                                        {
                                            OFFSET   2.273050   0.000000   0.000000
                                        }
                                    }
                                }
                            }
                            JOINT LeftFinger4
                            {
                                OFFSET   7.435090   0.000000  -3.252850
                                CHANNELS 3 Zrotation Xrotation Yrotation
                                JOINT LeftFinger41
                                {
                                    OFFSET   3.717550   0.000000   0.000000
                                    CHANNELS 3 Zrotation Xrotation Yrotation
                                    JOINT LeftFinger42
                                    {
                                        OFFSET   1.858770   0.000000   0.000000
                                        CHANNELS 3 Zrotation Xrotation Yrotation
                                        End Site
                                        {
                                            OFFSET   1.818440   0.000000   0.000000
                                        }
                                    }
                                }
                            }
                        }
                    }
                }
            }
            JOINT RightCollar
            {
                OFFSET  -3.911900  19.017000  -0.467063
                CHANNELS 3 Zrotation Xrotation Yrotation
                JOINT RightShoulder
                {
                    OFFSET -10.383700   0.000019   0.000000
                    CHANNELS 3 Zrotation Xrotation Yrotation
                    JOINT RightElbow
                    {
                        OFFSET -26.662100   0.001175   0.000102
                        CHANNELS 3 Zrotation Xrotation Yrotation
                        JOINT RightWrist
                        {
                            OFFSET -28.869000   0.000016  -0.000079
                            CHANNELS 3 Zrotation Xrotation Yrotation
                            JOINT RightFinger0
                            {
                                OFFSET  -2.044660  -2.323490   3.252850
                                CHANNELS 3 Zrotation Xrotation Yrotation
                                JOINT RightFinger01
                                {
                                    OFFSET  -3.088140   0.000000   0.000000
                                    CHANNELS 3 Zrotation Xrotation Yrotation
                                    JOINT RightFinger02
                                    {
                                        OFFSET  -2.639460   0.000000   0.000000
                                        CHANNELS 3 Zrotation Xrotation Yrotation
                                        End Site
                                        {
                                            OFFSET  -2.582190   0.000000   0.000000
                                        }
                                    }
                                }
                            }
                            JOINT RightFinger1
                            {
                                OFFSET  -8.364480   0.000000   3.252850
                                CHANNELS 3 Zrotation Xrotation Yrotation
                                JOINT RightFinger11
                                {
                                    OFFSET  -4.646930   0.000000   0.000000
                                    CHANNELS 3 Zrotation Xrotation Yrotation
                                    JOINT RightFinger12
                                    {
                                        OFFSET  -2.323470   0.000000   0.000000
                                        CHANNELS 3 Zrotation Xrotation Yrotation
                                        End Site
                                        {
                                            OFFSET  -2.273050   0.000000   0.000000
                                        }
                                    }
                                }
                            }
                            JOINT RightFinger2
                            {
                                OFFSET  -8.364480   0.000000   1.078090
                                CHANNELS 3 Zrotation Xrotation Yrotation
                                JOINT RightFinger21
                                {
                                    OFFSET  -5.111620   0.000000   0.000000
                                    CHANNELS 3 Zrotation Xrotation Yrotation
                                    JOINT RightFinger22
                                    {
                                        OFFSET  -2.788160   0.000000   0.000000
                                        CHANNELS 3 Zrotation Xrotation Yrotation
                                        End Site
                                        {
                                            OFFSET  -2.727660   0.000000   0.000000
                                        }
                                    }
                                }
                            }
                            JOINT RightFinger3
                            {
                                OFFSET  -7.899780   0.000000  -1.078090
                                CHANNELS 3 Zrotation Xrotation Yrotation
                                JOINT RightFinger31
                                {
                                    OFFSET  -4.646930   0.000000   0.000000
                                    CHANNELS 3 Zrotation Xrotation Yrotation
                                    JOINT RightFinger32
                                    {
                                        OFFSET  -2.323470   0.000000   0.000000
                                        CHANNELS 3 Zrotation Xrotation Yrotation
                                        End Site
                                        {
                                            OFFSET  -2.273050   0.000000   0.000000
                                        }
                                    }
                                }
                            }
                            JOINT RightFinger4
                            {
                                OFFSET  -7.435090   0.000000  -3.252850
                                CHANNELS 3 Zrotation Xrotation Yrotation
                                JOINT RightFinger41
                                {
                                    OFFSET  -3.717550   0.000000   0.000000
                                    CHANNELS 3 Zrotation Xrotation Yrotation
                                    JOINT RightFinger42
                                    {
                                        OFFSET  -1.858770   0.000000   0.000000
                                        CHANNELS 3 Zrotation Xrotation Yrotation
                                        End Site
                                        {
                                            OFFSET  -1.818440   0.000000   0.000000
                                        }
                                    }
                                }
                            }
                        }
                    }
                }
            }
        }
    }
    JOINT LeftHip
    {
        OFFSET   9.783040   0.000000   0.000000
        CHANNELS 3 Zrotation Xrotation Yrotation
        JOINT LeftKnee
        {
            OFFSET   0.000032 -41.789100  -0.002222
            CHANNELS 3 Zrotation Xrotation Yrotation
            JOINT LeftAnkle
            {
                OFFSET   0.000087 -41.133200  -0.000135
                CHANNELS 3 Zrotation Xrotation Yrotation
                JOINT LeftToe
                {
                    OFFSET   0.000000  -6.358960  14.674500
                    CHANNELS 3 Zrotation Xrotation Yrotation
                    End Site
                    {
                        OFFSET   0.000000   0.000000   3.913200
                    }
                }
            }
        }
    }
    JOINT RightHip
    {
        OFFSET  -9.783040   0.000000   0.000000
        CHANNELS 3 Zrotation Xrotation Yrotation
        JOINT RightKnee
        {
            OFFSET   0.000047 -41.789100  -0.000896
            CHANNELS 3 Zrotation Xrotation Yrotation
            JOINT RightAnkle
            {
                OFFSET  -0.000117 -41.133300  -0.000248
                CHANNELS 3 Zrotation Xrotation Yrotation
                JOINT RightToe
                {
                    OFFSET   0.000000  -6.358970  14.674500
                    CHANNELS 3 Zrotation Xrotation Yrotation
                    End Site
                    {
                        OFFSET   0.000000   0.000000   3.913200
                    }
                }
            }
        }
    }
}
MOTION
Frames: 4
Frame Time:   0.016667
 -0.242383  89.472000   2.697950  -1.703220  -1.586170   4.497180   1.191030   1.521470  -0.910963   2.407370   3.023480  -1.854330   0.028439   0.147851   0.002213   0.046436   0.305058   5.895010  -7.269770   4.041750   1.562240 -69.742100  15.360500  -4.679430  -1.750770  -6.114340 -10.397000   0.149319  -5.792560   5.484160  36.777100  26.254500 -68.760200 -20.722200   0.004482   0.007607  -5.355280   0.003305   0.006846 -29.121700   6.487920 -11.479800 -24.360300  -0.002589  -0.001629 -17.052200  -0.001943  -0.000846 -27.782400   1.312680  -2.502670 -30.902900   0.005889  -0.000416 -20.581300   0.005533  -0.002660 -26.094300  -3.279200   6.673950 -26.284200   0.003092   0.013080 -17.505300   0.002857   0.008021 -25.869800  -3.252810   6.686300 -39.089300  -0.001770  -0.004345 -26.033500   0.010386  -0.002529   5.614490   0.520889   8.272500  70.014700   6.904290   0.500665   1.703100  -6.936890   2.939290  -3.280470 -12.007200   5.741810 -39.202900  37.043400  67.897700  34.932300   0.002032  -0.002703  12.468700   0.001253  -0.002379  28.994000   6.935060  12.284400  24.334700   0.004019   0.004440  17.034300   0.004241   0.005613  27.727900   4.901210   9.233770  32.790900  -0.002983   0.000826  21.838700  -0.003351   0.000519  27.995300   2.539930   4.763990  32.683900  -0.004613  -0.000279  21.767500   0.000780  -0.011733  30.064200   1.234820   2.132040  45.130800  -0.001416  -0.004268  30.057100  -0.002249  -0.001963   2.743230   6.992430   0.026976   0.507849   0.307906  -1.444750  -1.743290  -4.685680  -1.811080  -0.000000   0.000000   0.000000   0.373410   1.529500  -1.380770   2.112610   4.811880  -2.073790  -4.783490  -4.037310  -2.002650  -0.000000   0.000000   0.000000
 -0.242293  89.472000   2.693520  -1.702360  -1.599210   4.490050   1.194550   1.527890  -0.918829   2.414730   3.036070  -1.870310   0.037664   0.147884   0.002255   0.061912   0.305141   5.897190  -7.269350   4.041740   1.556180 -69.741700  15.365800  -4.679550  -1.741580  -6.104920 -10.382500   0.138061  -5.777120   5.480700  36.788300  26.249400 -68.753700 -20.718600   0.004477   0.007606  -5.355280   0.003310   0.006844 -29.101600   6.489230 -11.485100 -24.344500  -0.002588  -0.001626 -17.041100  -0.001944  -0.000845 -27.782100   1.316910  -2.505070 -30.878400   0.005890  -0.000415 -20.564900   0.005534  -0.002660 -26.088300  -3.278950   6.678230 -26.278600   0.003093   0.013080 -17.501500   0.002858   0.008018 -25.863800  -3.252670   6.690800 -39.080200  -0.001770  -0.004343 -26.027500   0.010385  -0.002528   5.615310   0.514595   8.280880  70.009100   6.905690   0.496889   1.700430  -6.919310   2.924550  -3.285540 -12.004700   5.730520 -39.200000  37.040600  67.887800  34.932200   0.002031  -0.002699  12.468600   0.001251  -0.002371  29.005600   6.935080  12.283800  24.343800   0.004025   0.004434  17.040600   0.004240   0.005609  27.728500   4.900690   9.232120  32.818200  -0.002977   0.000831  21.856800  -0.003345   0.000522  28.001800   2.539160   4.761960  32.728800  -0.004609  -0.000277  21.797400   0.000778  -0.011729  30.089400   1.230480   2.122500  45.168300  -0.001417  -0.004271  30.082000  -0.002253  -0.001965   2.743230   6.995410   0.027009   0.508029   0.307515  -1.444710  -1.743250  -4.680350  -1.808060  -0.000000   0.000000   0.000000   0.373359   1.521830  -1.373970   2.110140   4.838970  -2.079950  -4.782960  -4.037700  -1.996230  -0.000000   0.000000  -0.000000
 -0.242140  89.472000   2.685830  -1.701080  -1.619630   4.475800   1.200620   1.538490  -0.930319   2.427360   3.056930  -1.893700   0.052559   0.147999   0.002296   0.086811   0.305297   5.905780  -7.268920   4.041600   1.550110 -69.740400  15.381300  -4.679900  -1.731480  -6.095640 -10.360600   0.126805  -5.761670   5.477240  36.803200  26.240400 -68.742300 -20.710500   0.004463   0.007604  -5.355280   0.003315   0.006838 -29.072000   6.494770 -11.500300 -24.321900  -0.002588  -0.001615 -17.025300  -0.001946  -0.000842 -27.781500   1.325820  -2.514780 -30.844400   0.005893  -0.000412 -20.542300   0.005537  -0.002660 -26.079200  -3.278700   6.682520 -26.270200   0.003095   0.013078 -17.496000   0.002860   0.008010 -25.855500  -3.252540   6.695290 -39.068000  -0.001770  -0.004335 -26.019300   0.010385  -0.002526   5.617180   0.500068   8.293960  69.999000   6.907090   0.487969   1.696170  -6.901810   2.896080  -3.292080 -11.999500   5.713520 -39.198400  37.034800  67.861500  34.932000   0.002030  -0.002689  12.468500   0.001243  -0.002348  29.017500   6.935170  12.280300  24.352800   0.004033   0.004421  17.046900   0.004239   0.005599  27.730200   4.897030   9.224250  32.845400  -0.002964   0.000845  21.875000  -0.003327   0.000530  28.008600   2.536100   4.755470  32.773600  -0.004597  -0.000273  21.827200   0.000771  -0.011719  30.124500   1.224510   2.109210  45.220500  -0.001421  -0.004280  30.116800  -0.002260  -0.001969   2.743220   7.005820   0.027042   0.508570   0.304777  -1.444450  -1.743180  -4.670270  -1.800760   0.000000   0.000000   0.000000   0.373311   1.514150  -1.367170   2.107200   4.866050  -2.086110  -4.782090  -4.038220  -1.985390  -0.000000   0.000000  -0.000000
 -0.242001  89.471900   2.678930  -1.700440  -1.632540   4.459020   1.205810   1.546340  -0.935938   2.438050   3.072420  -1.905260   0.063777   0.148300   0.002269   0.105418   0.305510   5.925220  -7.268690   4.037010   1.550260 -69.730700  15.406200  -4.687940  -1.731140  -6.102340 -10.347600   0.133468  -5.762160   5.481980  36.807000  26.232700 -68.732600 -20.698500   0.004437   0.007587  -5.350400   0.003306   0.006827 -29.055100   6.507710 -11.529700 -24.310100  -0.002593  -0.001593 -17.017700  -0.001948  -0.000838 -27.781100   1.339810  -2.540670 -30.831300   0.005899  -0.000406 -20.533700   0.005540  -0.002659 -26.073100  -3.279300   6.676520 -26.264200   0.003100   0.013076 -17.492700   0.002864   0.007998 -25.853000  -3.252870   6.689100 -39.064200  -0.001770  -0.004322 -26.016800   0.010383  -0.002521   5.616160   0.479238   8.301700  69.988700   6.902850   0.474113   1.696290  -6.910010   2.863750  -3.273380 -11.992700   5.706060 -39.207500  37.023400  67.808400  34.931800   0.002031  -0.002674  12.468400   0.001223  -0.002309  29.018000   6.927940  12.266200  24.351800   0.004036   0.004403  17.046200   0.004254   0.005582  27.731000   4.886410   9.204090  32.841100  -0.002944   0.000866  21.872200  -0.003296   0.000542  28.009600   2.527690   4.739700  32.772500  -0.004578  -0.000265  21.826500   0.000760  -0.011705  30.139000   1.222310   2.103730  45.242100  -0.001428  -0.004295  30.131200  -0.002266  -0.001976   2.740020   7.029610   0.025534   0.509232   0.280582  -1.438570  -1.743320  -4.656590  -1.789710  -0.000000   0.000000   0.000000   0.373570   1.588320  -1.372950   2.102960   4.797930  -2.071850  -4.781430  -4.038380  -1.976870   0.000000   0.000000  -0.000000
